<?xml version="1.0" standalone="no"?><!DOCTYPE svg PUBLIC "-//W3C//DTD SVG 1.1//EN" "http://www.w3.org/Graphics/SVG/1.1/DTD/svg11.dtd"><svg t="1741772801632" class="icon" viewBox="0 0 1024 1024" version="1.1" xmlns="http://www.w3.org/2000/svg" p-id="4480" xmlns:xlink="http://www.w3.org/1999/xlink" width="200" height="200"><path d="M776.040946 270.804571c25.748334 121.275519 45.398487 346.471463 23.020635 453.918944-22.250121 106.013584-84.447449 100.290359-298.773797 101.930275-207.375245 4.862063-285.654466-32.724159-304.57531-154.143891-17.227362-110.282311 11.092097-305.51888 32.122582-402.941446C264.403541 114.406824 331.907935 12.732014 502.446869 13.749751c149.248865 0.4244 237.243972 102.226944 273.594077 257.05482z" fill="#3E1E0C" p-id="4481"></path><path d="M300.984388 383.077032s-5.385353-4.318172-11.862611-9.674682c-6.510221-5.35239-10.589409-25.262128-9.101948-44.17473 1.108386-14.48318 2.241494-28.966361 3.391084-43.449542 1.553388-18.908482 9.880702-31.141928 18.558248-27.318204 8.726992 3.819604 15.937679 6.848093 15.937679 6.848093" fill="#FFEAD6" p-id="4482"></path><path d="M300.984388 383.077032s-5.385353-4.318172-11.862611-9.674682c-6.510221-5.35239-10.589409-25.262128-9.101948-44.17473 1.108386-14.48318 2.241494-28.966361 3.391084-43.449542 1.553388-18.908482 9.880702-31.141928 18.558248-27.318204 8.726992 3.819604 15.937679 6.848093 15.937679 6.848093" fill="#FFEAD6" p-id="4483"></path><path d="M955.529374 904.553935c-9.538709-34.170417-24.190826-111.114631-33.321616-145.355094-5.059842-18.488202-35.56311-63.660068-88.349461-69.292644-80.121037-13.749751-225.937615 0.931209-229.25041-57.314663-2.752422-41.883792-5.447159-83.767584-8.100692-125.667858-2.7277-37.87877-36.107001-66.709158-74.294802-66.297119-11.640109 0.144214-23.267858 0.144214-34.907967 0-38.196041-0.4244-71.571222 28.405987-74.303042 66.297119-2.649413 41.892033-5.344149 83.779945-8.092451 125.667858-4.71785 74.097022-138.750105 40.215033-219.629294 55.600579-74.220634 15.641011-93.182681 52.279543-97.954096 71.006728-9.13079 34.248704-23.774666 111.184677-33.317495 145.355094" fill="#FFEAD6" p-id="4484"></path><path d="M596.507195 506.927797c-0.032963-0.659263-0.156575-1.306164-0.218381-1.969548a1496.674972 1496.674972 0 0 1-130.567005 2.299179 1387.43512 1387.43512 0 0 1-54.500434 27.656076c-2.068437 32.559343-4.178078 65.126927-6.320683 97.68215-1.491582 21.182939-18.871399 40.416932-98.51447 50.643747-17.215001 11.903815 15.476195 32.501658 18.859038 37.371962 14.079382-9.460422 100.71888-51.191759 188.660422-52.090005 92.589345-0.218381 177.325221 36.580847 190.11492 45.9465 2.451634-3.745437 38.579237-22.155352 23.045356-32.242073-102.128054 0.877644-121.934782-41.418188-122.474553-49.634251-2.740061-41.883792-5.430678-83.767584-8.08421-125.663737z" fill="#D59758" opacity=".15" p-id="4485"></path><path d="M709.162852 382.986383c-0.00412 0 5.389474-4.322292 11.85849-9.678802 6.522582-5.356511 10.572928-25.266248 9.097827-44.178851-1.124867-14.487301-2.262096-28.966361-3.411685-43.453662-1.561629-18.912603-9.884822-31.137808-18.57885-27.318203-8.722871 3.831965-15.94592 6.856333-15.9418 6.856333" fill="#FFEAD6" p-id="4486"></path><path d="M709.162852 382.986383c-0.00412 0 5.389474-4.322292 11.85849-9.678802 6.522582-5.356511 10.572928-25.266248 9.097827-44.178851-1.124867-14.487301-2.262096-28.966361-3.411685-43.453662-1.561629-18.912603-9.884822-31.137808-18.57885-27.318203-8.722871 3.831965-15.94592 6.856333-15.9418 6.856333" fill="#FFEAD6" p-id="4487"></path><path d="M315.760116 280.5493c-0.057685 0.469725 67.755738-13.333591 87.302881-106.170159-2.385707 0.374956 118.860969 67.228328 229.959118 21.355995 0.177177 0.271946 47.417479-11.158023 59.164719 69.473942 0.399678 0.037084 25.38986-38.39794 2.591727-88.13108-25.245646-37.940576-311.246226-65.559569-308.955287-76.190182 1.532786 0.449123-61.447417 133.031-70.063158 179.661484z" opacity=".15" p-id="4488"></path><path d="M694.551939 286.103589c-8.772316-47.471045-19.221632-62.691775-50.804442-58.954579-49.642492 8.170739-189.880058-8.883567-242.332657-89.544375 0.42028-0.140093-30.94827 109.787864-82.906422 123.430485v0.008241a19357.955255 19357.955255 0 0 1-27.112184 186.620827c-3.279833 21.281828 7.503235 51.080509 24.76768 65.815033a1398.065733 1398.065733 0 0 0 115.276228 88.856269c19.316401 13.465443 52.728666 17.544632 73.322388 17.453984 20.589602 0.086528 54.014228-3.992661 73.326509-17.453984a1403.195622 1403.195622 0 0 0 115.280348-88.852149c17.260325-14.730404 28.055754-44.524964 24.771801-65.815033a18691.980299 18691.980299 0 0 1-23.589249-161.564719z" fill="#FFEAD6" p-id="4489"></path><path d="M280.782102 319.285112c-0.012361-0.049445 0.395558 33.478191 24.112538 37.075294-1.289683 8.908289-2.599968 17.820699-3.902012 26.724867-0.086528 0.082408-28.657331-14.380171-20.210526-63.800161zM729.608241 319.136778c0.016482-0.053565-0.383197 33.47407-24.083696 37.087655 1.297924 8.908289 2.604088 17.816578 3.918494 26.724867 0.082408 0.082408 28.64085-14.396652 20.165202-63.812522z" fill="#D59758" opacity=".15" p-id="4490"></path><path d="M591.995365 159.343827c-112.095284 7.359021-178.248189-86.985611-110.649027 3.341639-57.104523-12.793819-82.498503-40.194431-82.490262-39.947208-7.55268 89.17766-101.448189 106.186641-101.753098 105.135941 0.515049 11.322839 1.767648 23.214293 4.09567 35.612555 5.533687 0.898246 11.063254 1.763528 16.596942 2.587606 52.14769-13.609657 83.627491-123.537615 83.19897-123.397521 42.415323 91.917721 193.712023 93.137357 242.748817 84.468051 49.597167-6.135265 49.20161 42.876807 49.152165 43.115789 23.531563-54.97428-3.020248-145.42102-100.900177-110.916852z" fill="#1F0F06" opacity=".2" p-id="4491"></path><path d="M955.529374 1003.867761c-9.538709-34.170417-24.190826-210.424336-33.321616-244.66892-5.059842-18.488202-35.56311-63.660068-88.349461-69.292644-37.14534-7.387864-72.255207-2.52168-106.763496-7.680412-23.218413 53.878255-109.157444 93.850185-214.606534 94.11389-105.947658 0.655142-192.566554-39.020119-215.842653-93.026107-34.949171 5.03512-68.353195-4.235764-111.370095 4.890906-74.208273 15.641011-93.17032 52.271302-97.945855 71.006728-9.13079 34.244584-23.770546 210.498503-33.313376 244.66892" fill="#AAB29E" p-id="4492"></path><path d="M688.136488 472.96752a1374.892644 1374.892644 0 0 1-112.029358 88.576082c-18.78487 13.424239-51.298889 17.478706-71.3446 17.404539-20.033349 0.086528-52.551489-3.972059-71.34872-17.41278a1369.824561 1369.824561 0 0 1-112.029358-88.567841c-30.52799-25.150877-19.40705-95.341767-16.481571-116.598874a20737.829454 20737.829454 0 0 1-13.490166 91.303783c-3.279833 21.277708 7.503235 51.080509 24.763561 65.806792a1401.366168 1401.366168 0 0 0 115.267986 88.860389c19.324642 13.465443 52.736906 17.552873 73.326509 17.453984 20.593723 0.094769 54.010108-3.992661 73.326509-17.453984a1402.738258 1402.738258 0 0 0 115.280348-88.856269c17.260325-14.726284 28.055754-44.529084 24.771801-65.819153a18530.213681 18530.213681 0 0 1-11.281636-76.140737c2.921358 21.244745 11.759601 76.297312-18.731305 101.444069z" fill="#D59758" opacity=".15" p-id="4493"></path><path d="M515.483792 712.49831c18.67362-0.111251 34.001481 5.026879 34.232223 11.928537 0.234862 6.881056-15.018831 12.925672-34.067407 13.032802-19.032094 0.131853-34.368196-5.719105-34.240464-12.608402 0.140093-6.889297 15.397908-12.229326 34.075648-12.352937z" fill="#FFFFFF" opacity=".54" p-id="4494"></path><path d="M833.858297 689.906197c-37.14534-7.387864-72.255207-2.52168-106.763496-7.680412a95.2676 95.2676 0 0 1-9.188476 16.024207c11.158023 1.137228 22.423177 2.810108 33.865508 5.66966 52.473201 8.18722 80.504233 54.825946 84.538098 73.54901 7.256012 34.668984 18.896121 112.165331 26.477643 146.784871a1938.88376 1938.88376 0 0 0 92.750041-19.691357c-9.538709-34.170417-24.190826-111.114631-33.325737-145.363335-5.063963-18.488202-35.56723-63.660068-88.353581-69.292644z" fill="#3F3F3F" opacity=".05" p-id="4495"></path><path d="M862.42498 974.720103c-5.257621-0.391437-10.515242-0.725189-15.768743-1.096024a36260.218252 36260.218252 0 0 0 25.28685-396.019186c2.20029-36.457235-30.931788-68.658104-73.750909-71.014969a5391.327861 5391.327861 0 0 0-597.160277 0c-42.823242 2.360985-75.951199 34.557734-73.742669 71.014969a36048.063351 36048.063351 0 0 0 25.27861 396.015065c-5.261742 0.374956-10.519363 0.708708-15.781105 1.100145-13.498407 0.997135-23.663415 11.969741-22.678641 24.413327 0.984774 12.447706 12.616643 21.669145 25.979076 20.676131a4854.502495 4854.502495 0 0 1 719.049734 0c13.362434 0.993015 24.998423-8.224304 25.983197-20.676131 0.976533-12.447706-9.180235-23.416192-22.695123-24.413327z" fill="#4A5B5E" p-id="4496"></path><path d="M578.7277 759.61088c-5.35239 35.752648-38.179559 60.561532-73.511927 60.697506-35.332368-0.135973-68.159536-24.948978-73.507806-60.697506-5.385353-35.591952 27.417093-69.964268 73.507806-69.947786 46.098954-0.020602 78.89316 34.355835 73.511927 69.947786z" fill="#667E82" p-id="4497"></path></svg>