<?xml version="1.0" standalone="no"?><!DOCTYPE svg PUBLIC "-//W3C//DTD SVG 1.1//EN" "http://www.w3.org/Graphics/SVG/1.1/DTD/svg11.dtd"><svg t="1741772763841" class="icon" viewBox="0 0 1044 1024" version="1.1" xmlns="http://www.w3.org/2000/svg" p-id="3546" xmlns:xlink="http://www.w3.org/1999/xlink" width="203.90625" height="200"><path d="M981.235703 943.380644l-6.838883-54.115139c-2.501239-19.531556-27.931179-69.633362-83.971908-80.12073-84.020554-23.431381-169.678873-17.57759-228.792437-74.299368-23.224634-5.452458-36.071354 9.323906-60.508096 9.842801-44.300715 0.883744-88.617645 0.883744-132.922414 0.004054-24.42458-0.527003-33.436338-16.953293-56.632594-11.460297-76.727638 72.544042-137.324919 48.37891-222.569743 73.318332-77.712729 22.673307-91.71075 63.070143-94.061996 82.715208l-6.834828 54.115139" fill="#FFFFFF" p-id="3547"></path><path d="M288.060048 483.549925s-6.883475-4.167381-15.238505-9.303636C264.446243 469.105979 257.404667 448.812295 257.181704 429.191553c-0.190532-15.027704-0.352687-30.055408-0.498627-45.083112-0.166209-19.616687 9.027973-32.767449 20.415301-29.305442 11.41165 3.457953 20.79231 6.210532 20.788256 6.210532" fill="#FFEAD6" p-id="3548"></path><path d="M288.060048 483.549925s-6.883475-4.167381-15.238505-9.303636C264.446243 469.105979 257.404667 448.812295 257.181704 429.191553c-0.190532-15.027704-0.352687-30.055408-0.498627-45.083112-0.166209-19.616687 9.027973-32.767449 20.415301-29.305442 11.41165 3.457953 20.79231 6.210532 20.788256 6.210532" fill="#FFEAD6" p-id="3549"></path><path d="M645.246724 736.896666c1.499933 39.14419-38.122614 72.718359-88.066319 73.030507-15.015542 0.097293-30.031085 0.097293-45.046627 0-49.935597-0.312148-89.55409-33.87821-88.054157-73.030507l4.317373-129.987411c1.499933-39.188782 39.983341-69.852271 85.540757-69.576608 13.811542 0.089185 27.623085 0.093239 41.438681 0 45.553361-0.275663 84.057039 30.379718 85.552918 69.576608 1.443178 43.327786 2.882303 86.655571 4.317374 129.987411z" fill="#FFEAD6" p-id="3550"></path><path d="M645.789943 753.20134c1.487771 39.148243-38.414493 69.203652-88.520353 69.515799a3502.464469 3502.464469 0 0 1-45.21689 0c-50.101806-0.312148-90.000016-30.363502-88.508191-69.515799l4.860593-146.300193c1.499933-39.184728 39.983341-69.852271 85.540757-69.576608 13.811542 0.089185 27.623085 0.093239 41.438681 0 45.553361-0.275663 84.057039 30.379718 85.552918 69.576608 1.613441 48.768082 3.23499 97.53211 4.852485 146.300193z" fill="#FFEAD6" p-id="3551"></path><path d="M640.92935 606.901147c-0.020269-0.689158-0.149993-1.358047-0.186478-2.039097-50.413954 1.674249-100.860339 2.152606-151.290509 1.439124a2978.76094 2978.76094 0 0 1-62.008029 29.544621l-3.356606 101.042763c-0.482411 14.423677 4.524121 28.077119 13.576418 39.606331 13.061576-11.058963 42.330533-24.915098 106.973579-24.97996 51.626062-0.231071 76.334413 12.749428 88.021726 23.605697 8.399623-11.237334 13.057522-24.363772 12.591327-38.232068l-4.321428-129.987411z" fill="#D59758" opacity=".15" p-id="3552"></path><path d="M782.048694 483.489117s6.871313-4.167381 15.238505-9.30769c8.379354-5.144364 15.40066-25.438048 15.623624-45.062843 0.190532-15.027704 0.352687-30.055408 0.494572-45.079059 0.154047-19.620741-9.036081-32.767449-20.427462-29.301388-11.403542 3.462007-20.788256 6.214586-20.788256 6.21864" fill="#FFEAD6" p-id="3553"></path><path d="M782.048694 483.489117s6.871313-4.167381 15.238505-9.30769c8.379354-5.144364 15.40066-25.438048 15.623624-45.062843 0.190532-15.027704 0.352687-30.055408 0.494572-45.079059 0.154047-19.620741-9.036081-32.767449-20.427462-29.301388-11.403542 3.462007-20.788256 6.214586-20.788256 6.21864" fill="#FFEAD6" p-id="3554"></path><path d="M786.666054 550.775287c1.824242 22.178735-13.49534 52.270628-34.43359 66.588904a3018.46051 3018.46051 0 0 1-135.488515 87.664986c-22.004418 13.479125-59.16221 17.358681-82.090911 17.30598-22.912485 0.056754-60.074332-3.822801-82.07875-17.30598a3018.801036 3018.801036 0 0 1-135.496623-87.66904c-20.93825-14.318276-36.249725-44.41017-34.425482-66.588904l25.989374-324.009786c1.844512-22.186842 22.182788-38.775287 45.21689-37.283462a2786.729016 2786.729016 0 0 0 361.593235 0c23.038155-1.491825 43.376432 15.100674 45.21689 37.283462 8.671233 108.003262 17.334357 216.006524 25.997482 324.01384z" fill="#FFEAD6" p-id="3555"></path><path d="M749.378538 575.264729a2970.00863 2970.00863 0 0 1-133.684542 87.583908c-21.720647 13.471017-58.404136 17.342465-81.040958 17.293819-22.616553 0.0527-59.30815-3.818748-81.032851-17.293819a2981.81756 2981.81756 0 0 1-133.688596-87.583908c-37.599664-24.367826-31.364809-97.378063-29.658129-119.512205l-7.621279 95.026817c-1.824242 22.174681 13.487233 52.266574 34.425482 66.58485a3022.153588 3022.153588 0 0 0 135.488515 87.673094c22.008472 13.479125 59.166264 17.354627 82.082804 17.30598 22.920593 0.056754 60.078385-3.822801 82.090911-17.30598a3018.521318 3018.521318 0 0 0 135.488515-87.66904c20.93825-14.318276 36.253779-44.41017 34.429537-66.58485l-6.356472-79.257255c1.714788 22.12198 6.652404 79.366709-30.922937 103.738589zM296.613718 376.876333c0 0.316202 83.128703-16.957347 104.123707-113.171949-1.374263 0.295933 155.9403 65.83083 301.299994 22.892216 0.068916 0.206747 63.106628-9.644162 70.152258 74.343962 0.222963 0.044593 36.225402-38.284769 11.971084-90.887814-12.287287-26.110991-116.406939-39.273913-215.913285-53.851638-99.757686-13.304808-194.910173-28.024418-195.06422-27.89064 0.912121 0.263502-71.52652 139.777512-76.569538 188.565863z" fill="#D59758" opacity=".15" p-id="3556"></path><path d="M277.094324 354.790838c7.049684 0.616189 14.099367 1.208054 21.149051 1.771542C361.589181 339.714487 377.991148 224.637218 377.991148 224.783157c101.715706 58.874385 269.829785 49.274816 332.58778 44.08586 63.126897-4.199812 61.71615 91.897228 61.606695 92.063437 71.331935-38.900957 19.791004-237.573124-164.664233-261.045044-184.739008-27.91091-227.681676 52.651692-228.492451 54.054331-66.734844-37.384809-92.845834 34.230897-93.194467 34.393052 0.539165 0.048646-39.881994 69.710386-8.740148 166.456045z" fill="#E4BC96" p-id="3557"></path><path d="M257.047926 418.870395c-0.016215-0.032431 4.122788 34.494398 33.237698 36.874021l-2.22963 27.805509c-0.032431 0.060808-35.897038-13.150761-31.008068-64.67953zM813.36891 418.773102c0.016215-0.032431-4.106572 34.494398-33.22959 36.886183l2.241791 27.805509c0.032431 0.060808 35.897038-13.166977 30.987799-64.691692z" fill="#D59758" opacity=".15" p-id="3558"></path><path d="M367.305141 764.669744a3729.124569 3729.124569 0 0 0 81.490938 138.476219 3179.273565 3179.273565 0 0 0 87.097444-70.152258 3193.77832 3193.77832 0 0 0 84.859705 70.148204 3613.301388 3613.301388 0 0 0 87.137983-137.15871c-2.886357-1.191838-5.764606-2.387731-8.642856-3.591731a3193.060784 3193.060784 0 0 1-103.1224 47.191126 3400.509584 3400.509584 0 0 1-112.673323 0.166208 3188.540717 3188.540717 0 0 1-107.23708-50.519354c-2.963381 1.820189-5.934869 3.632269-8.910411 5.440296z" fill="#D59758" opacity=".2" p-id="3559"></path><path d="M650.07894 242.514794c-136.518199 32.532324-277.228102-38.126668-275.979509-38.300984-6.563219 91.690481-105.700663 114.53405-105.919572 114.035424a235.193501 235.193501 0 0 0 8.918519 36.541604c7.04563 0.616189 14.095314 1.208054 21.144997 1.775596C361.593235 339.714487 377.995202 224.637218 377.991148 224.783157c101.71976 58.874385 269.825731 49.270762 332.58778 44.08586 63.126897-4.199812 61.712096 91.901282 61.602641 92.067491 35.499759-55.165092 10.90897-151.266186-122.102629-118.421714z" fill="#A87846" opacity=".2" p-id="3560"></path><path d="M535.419219 820.268601c22.207112 0 40.408998 13.916943 40.656284 31.39724 0.25134 17.472189-17.950546 31.895866-40.644122 31.89992-22.701684 0.008108-40.90357-14.411516-40.664392-31.883705 0.243232-17.476243 18.441064-31.405348 40.65223-31.413455z" fill="#FF9999" p-id="3561"></path><path d="M458.15647 878.834892a3414.641383 3414.641383 0 0 1-86.420447-116.358293 3101.414896 3101.414896 0 0 0 50.195045-36.999691 3103.295893 3103.295893 0 0 0 114.088125 94.049834 3158.011006 3158.011006 0 0 1-77.862723 59.30815z" fill="#FFFFFF" p-id="3562"></path><path d="M615.442656 880.833451a3446.589949 3446.589949 0 0 0 83.801645-118.441983 3077.578128 3077.578128 0 0 1-50.21126-36.971314 3106.401159 3106.401159 0 0 1-114.047586 94.106588 3156.981322 3156.981322 0 0 0 80.457201 61.306709z" fill="#FFFFFF" p-id="3563"></path><path d="M376.215552 759.229448a3203.53599 3203.53599 0 0 0 85.216447 88.808177 3237.073674 3237.073674 0 0 0 73.553456-28.510883 3174.477834 3174.477834 0 0 1-76.833039 59.30815 3414.641383 3414.641383 0 0 1-86.420447-116.358293c1.495879-1.07833 2.991758-2.164768 4.483583-3.247151zM534.989509 819.526742a3190.673054 3190.673054 0 0 0 74.339908 32.872849 3179.293834 3179.293834 0 0 0 89.918938-90.008123 3461.820347 3461.820347 0 0 1-83.801645 118.441983 3142.687369 3142.687369 0 0 1-80.457201-61.306709z" fill="#D59758" opacity=".15" p-id="3564"></path><path d="M494.953468 970.618611a18214.980008 18214.980008 0 0 0 10.884646-100.418467c20.23693 0.170263 40.469806 0.162155 60.706736-0.024323 6.587542 33.444445 13.361563 66.872675 20.318007 100.276582" fill="#FF9999" p-id="3565"></path><path d="M505.011124 878.032225c-0.101347-0.012162 28.421698 21.984149 63.082305-0.036485l-1.548579-7.819919a3443.561707 3443.561707 0 0 1-60.706736 0.024323l-0.82699 7.832081z" fill="#E38888" p-id="3566"></path><path d="M989.363716 1007.731811l-14.962842-118.466306c-2.501239-19.531556-27.931179-69.633362-83.971908-80.12073-64.193066-17.820822-137.705983-22.012526-191.180611-46.757361a3458.329963 3458.329963 0 0 1-156.487573 209.074403c-0.705374 0.190532-1.414801 0.37701-2.120175 0.559434a3431.278474 3431.278474 0 0 1-163.500772-211.526995c-61.935059 38.880688-115.806966 25.036714-188.144261 46.060095-77.700568 22.665199-91.698588 63.062035-94.04578 82.7071l-14.962842 118.466306" fill="#7D7F91" p-id="3567"></path><path d="M349.184332 774.990903l-5.014639 91.021591c17.322196 0.95266 34.652499 1.775596 51.986856 2.472862l-1.548579 38.645563a3335.801677 3335.801677 0 0 0 146.040745 64.890332 3430.062312 3430.062312 0 0 1-163.500772-211.526995 2975.031378 2975.031378 0 0 1-27.963611 14.496647zM732.644154 774.277421l5.351111 91.005376c-17.318142 1.017522-34.644391 1.90532-51.970641 2.663394 0.567542 12.879152 1.126976 25.758304 1.690465 38.64151a3340.577138 3340.577138 0 0 1-144.942145 64.874116 3461.856832 3461.856832 0 0 0 156.475411-209.070349c11.08734 4.021441 22.219273 7.982074 33.395799 11.885953z" fill="#7D7F91" p-id="3568"></path><path d="M349.184332 774.990903a6081.509561 6081.509561 0 0 0 18.400526 72.868352c16.30062 0.790505 32.605294 1.467502 48.914022 2.026936l-1.690465 49.2059a3266.598025 3266.598025 0 0 0 127.960475 72.377834 3337.548896 3337.548896 0 0 1-148.164974-64.330898l1.548579-38.645563c-17.334357-0.697266-34.660607-1.520202-51.986856-2.472862 1.678303-30.347287 3.348498-60.69052 5.018693-91.029699zM731.213137 774.366606c-5.898384 24.323233-11.954869 48.63025-18.165401 72.925107-16.30062 0.847259-32.60124 1.576956-48.905914 2.18909l1.848566 49.197793a3264.640005 3264.640005 0 0 1-123.213391 72.787275 3336.58002 3336.58002 0 0 0 143.446267-64.809255l-1.674249-38.641509a3476.43861 3476.43861 0 0 0 51.978748-2.643125l-5.314626-91.005376z" fill="#3F3F3F" opacity=".2" p-id="3569"></path></svg>