<?xml version="1.0" standalone="no"?><!DOCTYPE svg PUBLIC "-//W3C//DTD SVG 1.1//EN" "http://www.w3.org/Graphics/SVG/1.1/DTD/svg11.dtd"><svg t="1741772789370" class="icon" viewBox="0 0 1043 1024" version="1.1" xmlns="http://www.w3.org/2000/svg" p-id="4107" xmlns:xlink="http://www.w3.org/1999/xlink" width="203.7109375" height="200"><path d="M1024.057552 1004.03369l-12.628476-99.96721c-2.672041-20.891248-29.881637-74.492385-89.846341-85.714956-89.88745-25.076074-181.542558-18.807056-244.783596-79.499377-24.849979-5.837381-38.59249 9.9811-64.741491 10.531951-47.397892 0.945491-94.812227 0.945491-142.214229 0.004111-26.136669-0.563184-35.772459-18.141101-60.593662-12.262612-82.093313 77.616617-146.929353 51.763595-238.13638 78.451116-83.149796 24.253908-98.125557 67.475195-100.637275 88.493878l-12.628476 99.963099" fill="#B88F8F" p-id="4108"></path><path d="M277.086512 469.979077s-7.366611-4.460253-16.30767-9.952324c-8.961614-5.496182-16.492658-27.209596-16.735197-48.207726-0.201431-16.077463-0.378197-32.154927-0.530297-48.23239-0.172655-20.989908 9.660455-35.057174 21.836739-31.353315 12.213282 3.699749 22.247822 6.643104 22.247822 6.643104" fill="#FFEAD6" p-id="4109"></path><path d="M277.086512 469.979077s-7.366611-4.460253-16.30767-9.952324c-8.961614-5.496182-16.492658-27.209596-16.735197-48.207726-0.201431-16.077463-0.378197-32.154927-0.530297-48.23239-0.172655-20.989908 9.660455-35.057174 21.836739-31.353315 12.213282 3.699749 22.247822 6.643104 22.247822 6.643104M659.25822 741.04322c1.607335 41.881155-40.787674 77.805715-94.220267 78.138692-16.065131 0.102771-32.130262 0.102771-48.195393 0-53.428482-0.332977-95.81938-36.245205-94.212045-78.138692l4.620575-139.077664c1.603224-41.926374 42.781427-74.739034 91.527672-74.438944 14.778441 0.094549 29.55277 0.094549 44.335322 0 48.733912-0.29598 89.932669 32.500237 91.535893 74.438944l4.608243 139.077664z" fill="#FFEAD6" p-id="4110"></path><path d="M659.837847 758.493701c1.590892 41.881155-41.104208 74.044304-94.713567 74.381392-16.122683 0.102771-32.249476 0.102771-48.376269 0-53.605248-0.337088-96.296237-32.487904-94.705345-74.381392l5.200202-156.532256c1.603224-41.926374 42.781427-74.739034 91.527672-74.438944 14.778441 0.09866 29.55277 0.09866 44.335322 0 48.733912-0.29598 89.932669 32.500237 91.535893 74.438944l5.196092 156.532256z" fill="#FFEAD6" p-id="4111"></path><path d="M654.637645 601.961445c-0.024665-0.73995-0.156212-1.455234-0.201431-2.17463-53.942336 1.792323-107.909337 2.302066-161.868116 1.537451a3168.468892 3168.468892 0 0 1-66.348827 31.608186l-3.592867 108.106657c-0.513854 15.436174 4.838449 30.04607 14.531791 42.374455 13.972718-11.826863 45.289035-26.650523 114.453781-26.720407 55.237248-0.250761 81.669897 13.635629 94.179158 25.256951 8.990389-12.024183 13.964496-26.066785 13.467086-40.906888l-4.620575-139.081775z" fill="#D59758" opacity=".15" p-id="4112"></path><path d="M805.624389 469.917414s7.350167-4.460253 16.303559-9.956435c8.961614-5.500293 16.480325-27.213707 16.722864-48.211836 0.19732-16.081574 0.374086-32.154927 0.522076-48.232391 0.164433-20.989908-9.668677-35.057174-21.861404-31.349203-12.20506 3.699749-22.231379 6.647215-22.231379 6.651325" fill="#FFEAD6" p-id="4113"></path><path d="M805.624389 469.917414s7.350167-4.460253 16.303559-9.956435c8.961614-5.500293 16.480325-27.213707 16.722864-48.211836 0.19732-16.081574 0.374086-32.154927 0.522076-48.232391 0.164433-20.989908-9.668677-35.057174-21.861404-31.349203-12.20506 3.699749-22.231379 6.647215-22.231379 6.651325M810.565609 541.906302c1.952645 23.723611-14.437242 55.923757-36.841276 71.240716a3225.638231 3225.638231 0 0 1-144.968486 93.796851c-23.546845 14.424909-63.298589 18.572738-87.827923 18.515187-24.517001 0.057552-64.272856-4.090278-87.819702-18.515187a3232.881517 3232.881517 0 0 1-144.968486-93.796851c-22.404034-15.325181-38.785699-47.521217-36.828943-71.244827l27.805667-346.674674c1.969088-23.735943 23.731832-41.482405 48.384491-39.887402a2980.7272 2980.7272 0 0 0 386.87861 0c24.648548-1.595003 46.40307 16.151458 48.37627 39.891513 9.265815 115.559595 18.535741 231.11919 27.809778 346.674674z" fill="#FFEAD6" p-id="4114"></path><path d="M770.674096 568.112855a3192.011626 3192.011626 0 0 1-143.040506 93.706413c-23.238533 14.412577-62.484645 18.556295-86.701555 18.498743-24.200467 0.057552-63.458912-4.086167-86.697445-18.498743a3183.650194 3183.650194 0 0 1-143.036395-93.710524c-40.228601-26.070896-33.560831-104.189034-31.731511-127.875647l-8.15178 101.677316c-1.956756 23.723611 14.42902 55.923757 36.828943 71.244827a3229.255763 3229.255763 0 0 0 144.968486 93.796851c23.550956 14.424909 63.3027 18.572738 87.823813 18.515187 24.517001 0.057552 64.276967-4.090278 87.827923-18.515187a3229.255763 3229.255763 0 0 0 144.968486-93.796851c22.404034-15.32107 38.78981-47.517106 36.837165-71.240716-2.269179-28.26608-4.538358-56.53216-6.799316-84.79824 1.816988 23.67017 7.095296 84.921565-33.096308 110.996571zM286.241335 355.84594c0 0.337088 88.941959-18.141101 111.403544-121.084553-1.471678 0.316534 166.846334 70.430883 322.371436 24.492336 0.069884 0.217874 67.524524-10.318188 75.059679 79.544597 0.238428 0.04933 38.752812-40.960329 12.805241-97.241728-13.14644-27.937213-124.545874-42.020923-231.012308-57.617419-106.733639-14.235811-208.538391-29.980297-208.706935-29.840529 0.978378 0.275426-76.527246 149.552064-81.920657 201.747296z" fill="#D59758" opacity=".15" p-id="4115"></path><path d="M265.358309 332.220989c7.539266 0.657733 15.082642 1.290801 22.626018 1.895094C355.759613 316.085974 373.308754 192.962449 373.308754 193.11866c108.834274 62.990277 288.695501 52.717308 355.850051 47.167685 67.540968-4.493139 66.028182 98.322877 65.913078 98.503754 76.317594-41.622173 21.174895-254.185068-176.177922-279.302251C421.232832 29.626765 375.286064 115.822688 374.418679 117.323142c-71.40515-39.998394-99.346474 36.627512-99.716449 36.796056 0.579627 0.053441-42.662213 74.586934-9.343921 178.101791z" fill="#666666" p-id="4116"></path><path d="M243.912099 400.781443c-0.020554-0.032887 4.406812 36.902938 35.558696 39.447543l-2.388394 29.754201c-0.028776 0.065773-38.399281-14.071378-33.170302-69.201744zM839.13589 400.678673c0.020554-0.032887-4.394479 36.907049-35.550474 39.459875l2.396615 29.754201c0.036997 0.061662 38.407502-14.087821 33.153859-69.214076z" fill="#D59758" opacity=".15" p-id="4117"></path><path d="M664.425535 212.09426c-105.512722 9.348032-127.176806-39.784631-155.286674-40.430031-26.313435-0.920826 65.645874 51.956804-8.05312 41.914041-77.345302-13.972718-131.994701-42.559442-131.945371-42.464893-7.01719 98.105003-113.088985 122.539788-113.323302 122.00949a251.841894 251.841894 0 0 0 9.53713 39.098122c7.539266 0.657733 15.082642 1.290801 22.626019 1.895094C355.759613 316.085974 373.308754 192.962449 373.308754 193.11866c108.834274 62.990277 288.695501 52.717308 355.850051 47.167685 67.540968-4.493139 66.028182 98.331099 65.913078 98.507865 37.975865-59.019213 11.670652-161.843451-130.646348-126.69995z" fill="#3F3F3F" opacity=".49" p-id="4118"></path><path d="M334.44906 470.110623c-1.348353 20.644598 17.24494 38.814475 41.334415 40.002505 32.048045 1.590892 64.112534 2.71726 96.185244 3.379104 24.105918 0.501521 43.920128-16.315892 44.022899-37.005709l0.624846-82.7716a3214.691085 3214.691085 0 0 1-176.983645-6.219688l-5.183759 82.615388z m241.190728-76.486138l0.892051 82.767489c0.172655 20.689817 20.040305 37.445568 44.146223 36.86183 32.0686-0.768726 64.128977-1.997864 96.172912-3.687416 24.085364-1.270247 42.621105-19.497676 41.202868-40.138163l-5.446852-82.594834a3210.300717 3210.300717 0 0 1-176.967202 6.791094z" fill="#964E00" opacity=".1" p-id="4119"></path><path d="M471.458976 892.909682a3530.661956 3530.661956 0 0 1-104.842656-124.492433 3284.645112 3284.645112 0 0 0 53.699797-39.587311 3325.778095 3325.778095 0 0 0 122.071152 100.620832 3420.339561 3420.339561 0 0 1-70.928293 63.458912z" fill="#FFFFFF" p-id="4120"></path><path d="M618.482878 898.401754a3632.62703 3632.62703 0 0 0 98.553084-130.070832 3244.478173 3244.478173 0 0 1-53.724462-39.562646 3325.251909 3325.251909 0 0 1-122.021823 100.682494 3397.956082 3397.956082 0 0 0 77.193201 68.950984z" fill="#FFFFFF" p-id="4121"></path><path d="M335.628869 451.336454c-1.348353 20.644598 17.133947 38.806253 41.087765 39.990172 31.867169 1.58267 63.750781 2.700817 95.642614 3.362661 23.970261 0.501521 43.673478-16.320003 43.776249-37.009819l0.624846-82.7716a3193.302427 3193.302427 0 0 1-175.947715-6.182692l-5.183759 82.611278zM575.438358 374.813318l0.89205 82.76749c0.172655 20.685706 19.929313 37.445568 43.899574 36.86594a3314.571968 3314.571968 0 0 0 95.630282-3.670973c23.949707-1.262025 42.374455-19.481232 40.960329-40.121719l-5.450963-82.594834a3189.228593 3189.228593 0 0 1-175.931272 6.754096z" fill="#BDF2FF" p-id="4122"></path><path d="M716.18502 496.937912c-31.92472 1.685441-63.861773 2.910469-95.811159 3.675084-28.031763 0.678287-50.953761-18.823499-51.09353-42.962304l-0.768725-88.933737a3190.038427 3190.038427 0 0 0 189.291476-7.26384l6.047033 88.732306c1.718328 24.077142-19.653887 45.280813-47.665095 46.752491zM582.385663 380.89735l0.990711 76.601241c0.189098 17.3436 16.657091 31.266987 36.701507 30.78602a3316.549278 3316.549278 0 0 0 95.453516-3.662751c20.032084-1.052373 35.386041-16.200788 34.247341-33.507391l-4.883669-76.453251A3194.967314 3194.967314 0 0 1 582.385663 380.89735z m-110.157961 119.954074a3327.311436 3327.311436 0 0 1-95.819381-3.366771c-28.007098-1.38535-49.449197-22.515026-47.817196-46.600391l5.759275-88.748749a3189.993207 3189.993207 0 0 0 189.307919 6.651326l-0.480967 88.937848c-0.061662 24.138805-22.917888 43.714586-50.94965 43.126737z m-124.928181-125.548917l-4.632908 76.469695c-1.08526 17.306602 14.322138 32.405688 34.354222 33.396398 31.805506 1.578559 63.631567 2.696706 95.461738 3.354439 20.048527 0.419305 36.4713-13.561634 36.602847-30.905234l0.744061-76.601241a3205.190953 3205.190953 0 0 1-162.52996-5.714057z" fill="#5E574F" p-id="4123"></path><path d="M796.646332 368.416864a3199.082257 3199.082257 0 0 1-511.416262 0l0.9866-12.295498a3185.960481 3185.960481 0 0 0 509.443062 0l0.9866 12.295498z" fill="#5E574F" p-id="4124"></path><path d="M369.48568 435.600189a7.485825 7.485825 0 0 1-4.854892-2.067748c-2.602157-2.556937-2.384282-6.454006 0.472746-8.706742a3022.13972 3022.13972 0 0 0 39.768187-31.978161c2.803587-2.293844 7.16518-2.112968 9.771448 0.398751 2.606267 2.511718 2.458277 6.412898-0.341199 8.710852a2969.771833 2969.771833 0 0 1-39.772299 32.097376 7.51049 7.51049 0 0 1-5.043991 1.545672zM376.465873 467.348144a7.588596 7.588596 0 0 1-4.904223-2.055416c-2.639154-2.548716-2.429502-6.445784 0.448081-8.706742a3005.852604 3005.852604 0 0 0 72.831609-59.163092c2.774812-2.326731 7.144626-2.203406 9.783779 0.275426 2.639154 2.482942 2.540494 6.384122-0.234317 8.719074a3006.600776 3006.600776 0 0 1-72.835719 59.372745 7.605039 7.605039 0 0 1-5.08921 1.558005z" fill="#FFFFFF" p-id="4125"></path><path d="M610.355764 439.373933a7.481714 7.481714 0 0 1-4.99055-1.705995c-2.783033-2.351396-2.852917-6.256686-0.172655-8.719075a2988.829649 2988.829649 0 0 0 37.285245-34.831078c2.622711-2.491164 6.988414-2.635043 9.771447-0.324756 2.783033 2.310288 2.926912 6.211467 0.304202 8.714964a3025.358501 3025.358501 0 0 1-37.285245 34.942071 7.457049 7.457049 0 0 1-4.912444 1.923869zM619.658576 470.521706a7.584485 7.584485 0 0 1-5.043991-1.689552c-2.81592-2.347285-2.898136-6.252575-0.193209-8.719074a3015.76382 3015.76382 0 0 0 68.256253-64.375627c2.593935-2.524051 6.963749-2.725482 9.779669-0.44397s3.005018 6.174469 0.411083 8.710853a3022.760456 3022.760456 0 0 1-68.252142 64.58939 7.629704 7.629704 0 0 1-4.957663 1.92798z" fill="#FFFFFF" p-id="4126"></path><path d="M921.50874 817.656794c-89.871007-25.076074-181.509671-18.811167-244.738377-79.503489a49.913721 49.913721 0 0 0-8.188777-1.183919c52.158235 50.904431 57.975062 64.017985 141.301625 90.635621 59.541289 13.051891 85.065444 67.466973 87.100306 88.432215l9.557684 100.304298a3850.554561 3850.554561 0 0 0 117.430023-13.006672l-12.628475-99.96721c-2.676152-20.891248-29.881637-74.492385-89.834009-85.710844z" fill="#666666" opacity=".1" p-id="4127"></path><path d="M713.011457 764.701057a3377.101831 3377.101831 0 0 1-103.798505 96.637436 3380.887908 3380.887908 0 0 1-54.982376-42.10314c-3.80663 3.987507-7.625593 7.970903-11.460999 11.946078a3120.536592 3120.536592 0 0 1-13.323206-11.941967 3406.876587 3406.876587 0 0 1-56.367727 39.077568 3363.030454 3363.030454 0 0 1-115.04163-83.725313 3595.128022 3595.128022 0 0 0 112.973881 142.61298 3456.083244 3456.083244 0 0 0 69.201744-60.721098 3444.25227 3444.25227 0 0 0 78.821091 68.268585 4022.744976 4022.744976 0 0 0 93.977727-160.051129z" fill="#666666" opacity=".1" p-id="4128"></path></svg>