<?xml version="1.0" standalone="no"?><!DOCTYPE svg PUBLIC "-//W3C//DTD SVG 1.1//EN" "http://www.w3.org/Graphics/SVG/1.1/DTD/svg11.dtd"><svg t="1741772810072" class="icon" viewBox="0 0 1024 1024" version="1.1" xmlns="http://www.w3.org/2000/svg" p-id="4664" xmlns:xlink="http://www.w3.org/1999/xlink" width="200" height="200"><path d="M821.0892 610.345534c33.750137 299.614357-128.255464 282.045002-319.252149 281.307452-192.067986 0.123612-348.408048-27.90742-318.64233-282.160374 24.182585-190.547562 166.826461-326.549364 319.318075-326.961403 152.479253 0.819958 294.81822 137.213198 318.576404 327.814325z" fill="#C77F46" p-id="4665"></path><path d="M299.039562 527.616288s-5.579012-4.482987-12.303492-10.041397c-6.753324-5.554289-10.980847-26.197457-9.443941-45.818767 1.14959-15.022952 2.323901-30.045904 3.518816-45.068855 1.611074-19.613069 10.247417-32.299759 19.246354-28.335941a1320.421053 1320.421053 0 0 0 16.531016 7.103557" fill="#FFEAD6" p-id="4666"></path><path d="M299.039562 527.616288s-5.579012-4.482987-12.303492-10.041397c-6.753324-5.554289-10.980847-26.197457-9.443941-45.818767 1.14959-15.022952 2.323901-30.045904 3.518816-45.068855 1.611074-19.613069 10.247417-32.299759 19.246354-28.335941a1320.421053 1320.421053 0 0 0 16.531016 7.103557" fill="#FFEAD6" p-id="4667"></path><path d="M932.61587 1006.694351c-9.888943-35.443618-25.089071-53.445614-34.561854-88.959279-5.237019-19.180428-36.881635-66.029293-91.637534-71.872011-83.104201-14.2648-189.018896 0.960052-192.455304-59.449026-2.847191-43.445421-5.649058-86.886721-8.39736-130.344503-2.83483-39.287945-37.45437-69.193755-77.055465-68.761114-12.080991 0.148334-24.13314 0.148334-36.210011 0-39.613456-0.432641-74.237116 29.460808-77.067825 68.761114-2.744182 43.449541-5.541928 86.899083-8.39324 130.344503-4.895027 76.853565-115.070208 41.706615-198.957283 57.669017-76.981297 16.226107-96.647932 54.220248-101.596524 73.65202-9.472783 35.517785-24.65231 53.515661-34.557734 88.959279" fill="#FFEAD6" p-id="4668"></path><path d="M605.563818 656.073652c-0.032963-0.683985-0.160695-1.355609-0.226622-2.043715-45.068856 2.768904-90.277805 3.560019-135.424947 2.385708a1439.207854 1439.207854 0 0 1-56.527668 28.686174c-2.146725 33.770739-4.334653 67.549718-6.555545 101.316336-1.545147 21.969934-19.571865 41.920876-102.177499 52.530887-17.857782 12.340576 16.05305 33.708933 19.559504 38.764655 14.598551-9.814775 104.468437-53.099501 195.67333-54.026589 96.042234-0.222501 183.930211 37.940576 197.189635 47.656462 2.538162-3.88553 40.017254-22.983551 23.902398-33.445228-105.927056 0.910607-126.467214-42.955094-127.031707-51.480187a59794.892001 59794.892001 0 0 1-8.380879-130.344503z" fill="#D59758" opacity=".15" p-id="4669"></path><path d="M722.409915 527.521519c-0.00412 0 5.579012-4.482987 12.295252-10.041397 6.765685-5.56253 10.968485-26.205698 9.435699-45.822887a27640.006438 27640.006438 0 0 0-3.535297-45.068856c-1.623435-19.61719-10.255657-32.295638-19.275197-28.33182-9.044262 3.972059-16.543377 7.115918-16.539257 7.115918" fill="#FFEAD6" p-id="4670"></path><path d="M722.409915 527.521519c-0.00412 0 5.579012-4.482987 12.295252-10.041397 6.765685-5.56253 10.968485-26.205698 9.435699-45.822887a27640.006438 27640.006438 0 0 0-3.535297-45.068856c-1.623435-19.61719-10.255657-32.295638-19.275197-28.33182-9.044262 3.972059-16.543377 7.115918-16.539257 7.115918" fill="#FFEAD6" p-id="4671"></path><path d="M707.25099 427.033382c-9.097827-49.238693-19.93446-36.181169-52.691582-32.308-51.492548 8.475648-196.946531-9.213198-251.352197-92.877772 0.428521-0.144214-32.097859 85.028424-85.992596 99.173732v0.008241a20155.659166 20155.659166 0 0 1-28.11756 193.57193c-3.399324 22.068823 7.791663 52.975889 25.686528 68.258426a1450.089812 1450.089812 0 0 0 119.565556 92.160824c20.033349 13.964011 54.689973 18.191534 76.050088 18.109126 21.364236 0.086528 56.033221-4.145115 76.054209-18.109126a1455.289747 1455.289747 0 0 0 119.573797-92.156704c17.907227-15.278416 29.098213-46.181362 25.686528-68.258426a19417.350716 19417.350716 0 0 1-24.462771-167.572251z" fill="#FFEAD6" p-id="4672"></path><path d="M278.087365 461.446902c-0.016482-0.053565 0.412039 34.722549 25.006664 38.455625-1.339128 9.23792-2.694737 18.479961-4.046226 27.726123-0.090649 0.082408-29.720393-14.919942-20.960438-66.181748zM743.609335 461.294447c0.016482-0.053565-0.399678 34.72667-24.97782 38.467987 1.347368 9.23792 2.702978 18.479961 4.066827 27.726122 0.086528 0.078287 29.699791-14.940544 20.910993-66.194109z" fill="#D59758" opacity=".15" p-id="4673"></path><path d="M946.522195 1002.573958c-9.427459-35.443618-23.914759-53.445614-32.938419-88.959279-5.002157-19.180428-35.155191-66.029293-87.348205-71.87201-36.72094-7.65569-71.435249-2.616449-105.54798-7.97296 3.292194 57.298181-61.863576 126.726799-212.171383 126.726798-165.128859 0-219.155448-69.428617-213.395139-125.58957-34.553613 5.224658-67.57032-4.388218-110.105135 5.063963-73.363592 16.226107-92.111379 54.220248-96.829229 73.65202-9.02778 35.517785-23.50272 53.515661-32.938419 88.959279" fill="#6B7F8F" p-id="4674"></path><path d="M700.596556 620.848415a1423.908836 1423.908836 0 0 1-116.203316 91.868276c-19.481217 13.926927-53.206631 18.129728-73.998133 18.05144-20.779141 0.086528-54.508675-4.120393-74.006374-18.055561a1421.238822 1421.238822 0 0 1-116.195075-91.864155c-31.665218-26.086206-20.132239-98.889425-17.091389-120.941768a21055.26863 21055.26863 0 0 1-13.992853 94.698986c-3.399324 22.064703 7.791663 52.975889 25.682408 68.250185a1451.581394 1451.581394 0 0 0 119.557315 92.164945c20.04159 13.968131 54.698213 18.199775 76.054209 18.113246 21.364236 0.090649 56.0291-4.145115 76.054209-18.113246a1453.921777 1453.921777 0 0 0 119.573797-92.160824c17.907227-15.274296 29.098213-46.185482 25.686528-68.262546-3.959697-26.32931-7.845228-52.646258-11.706036-78.975568 3.04497 22.048221 12.208724 79.144503-19.41529 105.22659z" fill="#D59758" opacity=".15" p-id="4675"></path><path d="M521.520167 869.291614c19.369966-0.115371 35.270562 5.220538 35.505425 12.37354 0.238983 7.1324-15.575085 13.403638-35.332368 13.519008-19.740802 0.127732-35.645517-5.929245-35.513665-13.082247 0.144214-7.144761 15.970642-12.682569 35.340608-12.810301z" fill="#FFFFFF" opacity=".54" p-id="4676"></path><path d="M270.946725 438.442749C260.72403 318.980203 250.501336 306.647867 240.282762 187.185321c-4.30581-48.15503-13.819797-143.768743 84.484532-151.469757 135.177724-10.655336 213.19324-10.539965 348.362724 0.346113 109.161564 8.739353 97.142379 102.449445 92.663512 151.576887-10.38751 119.441944-20.783261 131.757798-31.170771 251.199743" fill="#6B7F8F" p-id="4677"></path><path d="M262.788347 343.092741a2306.018992 2306.018992 0 0 1 480.124642 0.412039l-6.567906 75.469113a2243.430227 2243.430227 0 0 0-467.09596-0.399678l-6.460776-75.481474z" fill="#F78383" p-id="4678"></path><path d="M229.919974 423.007758a2244.101851 2244.101851 0 0 1 541.926413 0l-3.976179 39.65878a2211.221117 2211.221117 0 0 0-533.978175 0l-3.972059-39.65878z" fill="#6B7F8F" p-id="4679"></path></svg>