<?xml version="1.0" standalone="no"?><!DOCTYPE svg PUBLIC "-//W3C//DTD SVG 1.1//EN" "http://www.w3.org/Graphics/SVG/1.1/DTD/svg11.dtd"><svg t="1741772818862" class="icon" viewBox="0 0 1030 1024" version="1.1" xmlns="http://www.w3.org/2000/svg" p-id="4846" xmlns:xlink="http://www.w3.org/1999/xlink" width="201.171875" height="200"><path d="M998.933299 999.022998l-13.140855-104.017838c-2.642034-20.638848-29.274384-73.634452-87.770147-84.801936-87.700835-24.675288-194.470791-16.129451-255.869529-76.602663-24.226795-5.920112-20.545072 7.661082-46.01134 8.227814a3477.22189 3477.22189 0 0 1-138.645601 0.004077c-25.46219-0.566732-21.800854-14.160158-46.027648-8.231891-79.86851 77.144932-156.377397 47.499522-245.313627 73.854622-81.136523 24.059629-95.822641 66.788813-98.305664 87.554054l-13.140855 104.013761" fill="#FFFFFF" p-id="4847"></path><path d="M269.862522 465.931579s-7.171816-4.399312-15.86851-9.813849c-8.721157-5.422692-16.027521-26.860674-16.235459-47.597376C237.583232 392.635535 237.428298 376.754794 237.301905 360.874052c-0.138625-20.736701 9.450978-34.644072 21.303434-31.007198 11.880996 3.645028 21.64592 6.539848 21.641842 6.539848" fill="#FFEAD6" p-id="4848"></path><path d="M269.862522 465.931579s-7.171816-4.399312-15.86851-9.813849c-8.721157-5.422692-16.027521-26.860674-16.235459-47.597376C237.583232 392.635535 237.428298 376.754794 237.301905 360.874052c-0.138625-20.736701 9.450978-34.644072 21.303434-31.007198 11.880996 3.645028 21.64592 6.539848 21.641842 6.539848" fill="#FFEAD6" p-id="4849"></path><path d="M642.156845 733.604638c1.586036 41.379627-39.73651 76.839141-91.843282 77.165318-15.668727 0.10193-31.337453 0.10193-47.002102 0-52.102695-0.326177-93.429318-35.777537-91.843282-77.165318l4.566477-137.406129c1.586036-41.424476 41.709881-73.854622 89.189017-73.56514 14.392559 0.093776 28.789195 0.093776 43.185832 0 47.470982-0.289482 87.602981 32.132509 89.189017 73.56514 1.512646 45.803402 3.033446 91.606804 4.558323 137.406129z" fill="#FFEAD6" p-id="4850"></path><path d="M642.727655 750.839014c1.573804 41.379627-40.042301 73.137033-92.32847 73.463209-15.725807 0.10193-31.455692 0.10193-47.1815-0.004077-52.278015-0.3221-93.898197-32.067274-92.324393-73.459132l5.137287-154.640505c1.586036-41.424476 41.709881-73.854622 89.189017-73.56514 14.392559 0.093776 28.789195 0.093776 43.185832 0 47.470982-0.289482 87.602981 32.132509 89.189017 73.56514l5.13321 154.640505z" fill="#FFEAD6" p-id="4851"></path><path d="M637.590368 596.198509c-0.024463-0.725744-0.150857-1.435179-0.195707-2.152768a3323.767854 3323.767854 0 0 1-157.718799 1.500414 3105.530993 3105.530993 0 0 1-64.660509 31.255909l-3.551252 106.798497c-0.509652 15.252851 4.70918 29.678028 14.152004 41.85666 13.67497-11.68529 44.466076-39.98522 111.552526-40.050455 53.578646-0.240556 79.636109 27.121616 91.871823 38.603045 8.753775-11.872842 13.60158-25.739441 13.112314-40.405173l-4.5624-137.406129z" fill="#D59758" opacity=".15" p-id="4852"></path><path d="M784.573868 465.866344s7.155507-4.399312 15.864432-9.817927c8.725234-5.426769 16.023444-26.868828 16.223228-47.60553 0.171243-15.884819 0.3221-31.76556 0.444416-47.646302 0.130471-20.736701-9.455055-34.639995-21.319743-31.003121-11.872842 3.645028-21.637765 6.543926-21.637765 6.543925" fill="#FFEAD6" p-id="4853"></path><path d="M784.573868 465.866344s7.155507-4.399312 15.864432-9.817927c8.725234-5.426769 16.023444-26.868828 16.223228-47.60553 0.171243-15.884819 0.3221-31.76556 0.444416-47.646302 0.130471-20.736701-9.455055-34.639995-21.319743-31.003121-11.872842 3.645028-21.637765 6.543926-21.637765 6.543925" fill="#FFEAD6" p-id="4854"></path><path d="M789.462445 536.997388c1.932599 23.439893-14.001147 55.225839-35.818309 70.340065a3144.113652 3144.113652 0 0 1-141.230554 92.57718c-22.942473 14.233548-61.700452 18.331146-85.605147 18.269988-23.904695 0.057081-62.658597-4.03644-85.601071-18.274065a3140.652099 3140.652099 0 0 1-141.23463-92.573103c-21.817163-15.118303-37.742753-46.900172-35.814232-70.340065l21.727463-270.889979c1.948907-23.44397 23.615213-40.971905 48.180417-39.381793a2970.746512 2970.746512 0 0 0 385.496337 0c24.557049-1.590113 46.231509 15.937823 48.176339 39.381793l21.723387 270.889979z" fill="#FFEAD6" p-id="4855"></path><path d="M750.626999 562.838759a3103.802255 3103.802255 0 0 1-139.322419 92.483404c-22.640759 14.233548-60.897242 18.318914-84.496145 18.261834-23.594827 0.057081-61.851309-4.028286-84.496146-18.261834a3103.863413 3103.863413 0 0 1-139.322418-92.487481c-39.169778-25.714977-32.581003-102.892527-30.774798-126.291648l-8.056571 100.454354c-1.928521 23.439893 13.99707 55.221762 35.814232 70.340065a3138.19354 3138.19354 0 0 0 141.230553 92.573103c22.94655 14.237625 61.70453 18.331146 85.609225 18.274065 23.900618 0.057081 62.662674-4.03644 85.605147-18.269988a3144.113652 3144.113652 0 0 0 141.230554-92.57718c21.817163-15.114226 37.746831-46.896095 35.814232-70.335988-2.23839-27.928904-4.480856-55.85373-6.715168-83.782633 1.802128 23.395044 7.020959 83.90495-32.120278 109.619927z" fill="#D59758" opacity=".15" p-id="4856"></path><path d="M237.640313 397.617889c-0.020386-0.032618 4.248455 36.442123 34.578837 38.921067l-2.360706 29.3967c-0.032618 0.061158-37.383959-13.854367-32.218131-68.317767zM817.12633 397.515958c0.020386-0.036695-4.232146 36.442123-34.570682 38.9333l2.36886 29.392623c0.02854 0.065235 37.388036-13.866599 32.201822-68.325923z" fill="#D59758" opacity=".15" p-id="4857"></path><path d="M998.933299 999.022998l-13.140855-104.017838c-2.642034-20.638848-29.274384-73.634452-87.770147-84.801936-87.700835-24.675288-194.470791-16.129451-255.869529-76.602663 18.755176 53.08938-100.067019 227.447283-119.462318 233.510097-20.642925-3.657259-113.032554-233.187998-111.226349-233.510097-43.483468 33.53507-155.52526 48.094795-245.313626 73.854622-81.136523 24.059629-95.822641 66.788813-98.305664 87.554054l-13.140855 104.013761" fill="#5EC4FF" p-id="4858"></path><path d="M289.938714 777.406129c0.122316 0.004077-29.237689 53.501179 3.539021 55.719182 32.809327 2.160922 62.519972 3.530866 62.519972 3.534943l-1.891827 39.601962A3414.542906 3414.542906 0 0 0 522.69045 967.114735a3653.565395 3653.565395 0 0 1-134.82933-183.625406c-0.122316 0.27725-84.284131-18.090591-97.922406-6.0832zM897.883672 808.865898c-34.856087-9.895394-72.374594-14.343633-109.0165-20.023189l-0.036695-0.008155c-0.17532-0.032618-0.371026-0.053004-0.550423-0.085621-55.698796-8.598841-109.391603-20.251513-146.172135-56.502007-3.196534 1.855132-6.397146 3.563483-9.593681 5.231063 26.636427 38.99038 51.050774 50.492196 88.393961 61.998089a3235.55329 3235.55329 0 0 1-31.818564 17.107983 3370.786265 3370.786265 0 0 1-166.399185 150.526597 3445.325858 3445.325858 0 0 0 196.676563-94.338536l-1.977448-37.11894a3579.792317 3579.792317 0 0 0 95.73702-6.393069l-0.130471-0.468879c38.810983 20.524686 56.289992 60.412053 57.90049 77.536345l9.854622 104.384786a3779.812193 3779.812193 0 0 0 118.01083-13.018538l-13.144932-104.021915c-2.637956-20.647003-29.258075-73.63853-87.733452-84.806014z" opacity=".1" p-id="4859"></path><path d="M329.300121 327.942409c-23.346117-1.728738-39.834363 14.119386-36.523667 35.59814 3.763267 24.01478 7.652927 48.025483 11.673059 72.032108 3.534943 21.462445 26.664968 40.397019 51.27502 41.689495a3241.954514 3241.954514 0 0 0 69.222909 2.93967c24.610053 0.811365 54.043448-12.822832 65.149774-29.979741 11.15933-17.128368 28.850354-17.034593 39.830286 0.207937 10.918774 17.275148 40.209467 31.215137 64.823597 30.664713a3229.682105 3229.682105 0 0 0 82.636937-2.805122c24.61413-1.125311 49.909155-19.562464 56.004587-40.588647a4949.42575 4949.42575 0 0 0 20.010957-70.217749c5.781487-21.066955-8.798624-36.968083-32.197744-35.687838a3073.87144 3073.87144 0 0 1-391.905715-3.852966z" fill="#FFEF9E" p-id="4860"></path><path d="M731.48041 408.267567c-6.030197 21.022106-31.076511 39.442951-55.466395 40.560107-27.280627 1.276167-54.58164 2.205772-81.882652 2.780659-24.389883 0.546346-53.419634-13.397719-64.232401-30.676945-10.878002-17.234376-28.405937-17.324075-39.463337-0.207938-11.000319 17.165063-40.172772 30.803338-64.554501 29.996051a3209.128878 3209.128878 0 0 1-68.586864-2.91113c-24.381729-1.276167-47.291584-20.206664-50.777601-41.660954a6863.212079 6863.212079 0 0 1-10.144104-63.127477c-3.375932 5.73256-4.815188 12.749443-3.596101 20.520609 3.763267 24.01478 7.652927 48.025483 11.673059 72.032108 3.534943 21.458368 26.664968 40.401096 51.27502 41.689495a3241.954514 3241.954514 0 0 0 69.222909 2.93967c24.610053 0.811365 54.047525-12.822832 65.149774-29.979741 11.15933-17.124291 28.850354-17.030515 39.830286 0.207937 10.918774 17.275148 40.209467 31.219214 64.823597 30.664713a3230.636173 3230.636173 0 0 0 82.641014-2.805122c24.61413-1.125311 49.909155-19.566541 55.996433-40.592724a4866.185386 4866.185386 0 0 0 20.015034-70.217749c2.633879-9.49175 1.047844-17.923425-3.563483-24.21864a4908.339683 4908.339683 0 0 1-18.359687 65.007071z" fill="#3F3F3F" opacity=".1" p-id="4861"></path><path d="M236.873798 368.074409c-4.590941 1.512646 313.876027 110.908326 580.2403-7.277824-0.008154-0.085621-8.154424-60.717844-55.898579-56.893419-23.79461 2.197617-152.067784 20.569536-275.957954 27.574186-123.637383 8.737466-242.887686 6.099509-242.757215 6.30337-1.859209 10.099255-3.738804 20.198509-5.626552 30.293687z" opacity=".05" p-id="4862"></path><path d="M529.279225 238.590304c164.02217 0.163088 300.307065 16.36593 304.967319 55.670255 4.749952 38.782443-131.46563 86.832388-304.84908 86.758999C356.009938 381.378353 219.725043 333.556731 224.405683 294.766134c4.595018-39.31248 140.843218-55.743645 304.873542-56.17583z" fill="#FF7A7A" p-id="4863"></path><path d="M529.336306 309.806969c136.2482-0.70128 198.52354-21.92317 198.441996-21.376823a2955.289801 2955.289801 0 0 0 40.641651-13.813595c-6.808944-83.330063-41.289928-152.349111-117.864051-184.669173-32.878639-13.935911-73.601835-21.258584-124.493597-21.254507-51.295407-0.032618-92.185768 7.245206-125.105179 21.1485-76.663821 32.250749-110.810473 105.0086-117.668345 188.346818" fill="#FF7A7A" p-id="4864"></path><path d="M650.555902 89.947378c-20.801937-8.737466-54.960821-27.072689-82.233293-21.560298 82.172135 18.375995 90.607887 145.523858 99.479901 233.954514a3001.378607 3001.378607 0 0 0 105.697649-25.396955c-12.676053-94.146907-46.268204-154.689431-122.944257-186.997261z" opacity=".15" p-id="4865"></path><path d="M483.834618 209.772568l1.838823-126.173409c0.346563-20.443142 17.030515-36.89877 37.07409-36.87023a2877.044021 2877.044021 0 0 0 19.676626-0.040772c20.043575-0.106008 36.792763 16.276231 37.229025 36.719373l2.364783 126.161177" fill="#FF7A7A" p-id="4866"></path><path d="M483.834618 209.772568l1.838823-126.173409c0.346563-20.443142 17.030515-36.89877 37.07409-36.87023a2877.044021 2877.044021 0 0 0 19.676626-0.040772c20.043575-0.106008 36.792763 16.276231 37.229025 36.719373l2.364783 126.161177" fill="#FF7A7A" p-id="4867"></path><path d="M408.972925 90.200166c20.785628-8.778238 54.911894-27.186851 82.188443-21.735619-82.102822 18.551316-90.420335 145.71141-93.608715 223.121361a3026.840798 3026.840798 0 0 1-106.345926-12.769828c6.645856-83.346372 41.285851-156.140919 117.766198-188.615914z" fill="#FFFFFF" opacity=".15" p-id="4868"></path><path d="M411.468179 733.604638a4473.953494 4473.953494 0 0 0 111.230426 233.50602 3365.913996 3365.913996 0 0 1-143.2977-108.959419l1.675734-40.853666a3547.782124 3547.782124 0 0 1-69.95273-3.555329c-0.305791-0.42403-14.188698-57.109511 100.34427-80.137606z" fill="#5EC4FF" p-id="4869"></path><path d="M522.694528 967.114735a4174.580111 4174.580111 0 0 0 125.928776-233.730267c94.06944-3.771421 110.353826 79.028604 110.414984 79.322164-23.301268 1.524877-46.618844 2.817354-69.940499 3.881506l1.867364 40.845512A3373.053195 3373.053195 0 0 1 522.694528 967.114735" fill="#5EC4FF" p-id="4870"></path><path d="M542.428235 46.688157c-6.556157 0.036695-13.116392 0.053004-19.676626 0.040772-0.786902 0-1.561572 0.07339-2.34032 0.118239 18.959037 1.284322 34.321972 17.275148 34.562528 36.911002l1.259858 126.177486c8.594763-0.085621 17.189527-0.207938 25.78429-0.371026l-2.364783-126.161177c-0.432184-20.439065-17.181372-36.821303-37.224947-36.715296z" opacity=".15" p-id="4871"></path><path d="M773.361534 258.054915c21.788622 6.486845 34.746002 14.682041 35.683761 24.654902 3.653182 32.218131-124.974709 72.774161-287.781869 72.284895C358.452188 354.900936 229.950691 313.880104 233.722113 281.674205c0.081544-0.84806 0.301714-1.679811 0.558578-2.507485-5.842645 4.758107-9.312353 9.944321-9.875008 15.599414-4.68064 38.78652 131.604256 86.612219 304.991781 86.253424 173.391603 0.07339 309.599032-47.980633 304.84908-86.758999-1.586036-15.493406-24.287953-27.488565-60.88501-36.205644z" opacity=".15" p-id="4872"></path></svg>