<?xml version="1.0" standalone="no"?><!DOCTYPE svg PUBLIC "-//W3C//DTD SVG 1.1//EN" "http://www.w3.org/Graphics/SVG/1.1/DTD/svg11.dtd"><svg t="1741773027402" class="icon" viewBox="0 0 1063 1024" version="1.1" xmlns="http://www.w3.org/2000/svg" p-id="9778" xmlns:xlink="http://www.w3.org/1999/xlink" width="207.6171875" height="200"><path d="M1045.121624 1008.008736l-13.134214-103.992549c-2.676173-20.895526-29.881877-74.492983-89.842952-85.719755-89.892282-25.076276-181.552237-18.807207-244.789671-79.495905-24.850178-5.837428-38.59691 9.972958-64.742011 10.527925-47.398272 0.945499-94.812988 0.945499-142.215371 0.004111-26.14099-0.563188-35.772746-18.137136-60.598259-12.254489-82.089861 77.613129-146.926422 51.755789-238.130071 78.447635-83.150464 24.249992-98.126345 67.471625-100.638083 88.494588l-13.138324 103.988439" fill="#78A68D" p-id="9779"></path><path d="M297.63895 469.925298s-7.36667-4.460288-16.30369-9.952404c-8.965796-5.496226-16.49279-27.213926-16.735331-48.208113-0.201432-16.077593-0.3782-32.155185-0.530301-48.232777-0.172656-20.990076 9.664643-35.057456 21.845136-31.357678 12.209269 3.699778 22.24389 6.643158 22.24389 6.647269" fill="#FFEAD6" p-id="9780"></path><path d="M297.63895 469.925298s-7.36667-4.460288-16.30369-9.952404c-8.965796-5.496226-16.49279-27.213926-16.735331-48.208113-0.201432-16.077593-0.3782-32.155185-0.530301-48.232777-0.172656-20.990076 9.664643-35.057456 21.845136-31.357678 12.209269 3.699778 22.24389 6.643158 22.24389 6.647269" fill="#FFEAD6" p-id="9781"></path><path d="M679.813726 740.987507c1.607348 41.881491-40.783891 77.802229-94.221023 78.135209-16.06526 0.102772-32.13052 0.102772-48.19578 0-53.428911-0.33298-95.82015-36.245496-94.212801-78.135209l4.620612-139.082892c1.603237-41.926711 42.781771-74.735524 91.528407-74.43543 14.778559 0.09455 29.553008 0.09455 44.335677 0 48.738414-0.295982 89.92928 32.500498 91.532518 74.43543 1.533353 46.366445 3.070816 92.724668 4.61239 139.082892z" fill="#FFEAD6" p-id="9782"></path><path d="M680.389248 758.434017c1.595016 41.885602-41.096316 74.049009-94.710217 74.386101-16.122812 0.102772-32.249735 0.102772-48.376658 0-53.605678-0.337091-96.29701-32.488165-94.706105-74.386101l5.200244-156.529402c1.603237-41.926711 42.781771-74.735524 91.528407-74.43543 14.778559 0.09455 29.553008 0.09455 44.335678 0 48.738414-0.295982 89.92928 32.500498 91.532517 74.43543l5.196134 156.529402z" fill="#FFEAD6" p-id="9783"></path><path d="M675.193114 601.904615c-0.024665-0.735845-0.156213-1.451135-0.201432-2.174647-53.942769 1.788226-107.914314 2.302084-161.873527 1.537463a3189.073321 3189.073321 0 0 1-66.345248 31.612551l-3.592896 108.107525c-0.513858 15.436298 4.842599 30.03809 14.527796 42.374795 13.981051-11.826958 45.293509-26.658959 114.454701-26.728843 55.237691-0.250763 81.674664 13.635739 94.179914 25.265375 8.990462-12.02428 13.964608-26.062883 13.467194-40.907216l-4.616502-139.087003z" fill="#D59758" opacity=".15" p-id="9784"></path><path d="M826.181071 469.859524s7.354337-4.460288 16.30369-9.960626c8.961685-5.496226 16.480457-27.218036 16.718887-48.212223 0.201432-16.081703 0.374089-32.155185 0.52208-48.232778 0.168545-20.994187-9.664643-35.057456-21.853358-31.353566-12.205158 3.703889-22.235668 6.651379-22.235668 6.651379" fill="#FFEAD6" p-id="9785"></path><path d="M826.181071 469.859524s7.354337-4.460288 16.30369-9.960626c8.961685-5.496226 16.480457-27.218036 16.718887-48.212223 0.201432-16.081703 0.374089-32.155185 0.52208-48.232778 0.168545-20.994187-9.664643-35.057456-21.853358-31.353566-12.205158 3.703889-22.235668 6.651379-22.235668 6.651379" fill="#FFEAD6" p-id="9786"></path><path d="M831.12233 541.853101c1.952661 23.723801-14.437357 55.924206-36.841571 71.241288a3223.473039 3223.473039 0 0 1-144.973761 93.797604c-23.542923 14.425025-63.294987 18.572888-87.820406 18.511225-24.521309 0.061663-64.277483-4.0862-87.820407-18.511225a3229.281691 3229.281691 0 0 1-144.96965-93.797604c-22.404214-15.325304-38.78601-47.521598-36.829239-71.245399l27.80589-346.673347c1.969104-23.736134 23.732023-41.486848 48.38488-39.891833a2980.751132 2980.751132 0 0 0 386.881716 0c24.640524-1.595016 46.407554 16.155699 48.380769 39.891833 9.261779 115.560523 18.531779 231.116935 27.801779 346.677458z" fill="#FFEAD6" p-id="9787"></path><path d="M791.226387 568.055754a3189.537849 3189.537849 0 0 1-143.037544 93.707165c-23.238719 14.416803-62.485146 18.556444-86.698141 18.494781-24.204772 0.061663-63.459421-4.077978-86.702251-18.494781a3188.366252 3188.366252 0 0 1-143.037544-93.711276c-40.228924-26.075216-33.561101-104.193981-31.731766-127.876674l-8.155956 101.674021c-1.952661 23.727912 14.429136 55.924206 36.829239 71.24951a3229.281691 3229.281691 0 0 0 144.96965 93.797604c23.547034 14.425025 63.303208 18.572888 87.824518 18.515336 24.517198 0.057552 64.277483-4.090311 87.820406-18.515336a3229.281691 3229.281691 0 0 0 144.96965-93.797604c22.404214-15.321193 38.790121-47.517487 36.83335-71.245399l-6.799371-84.798921c1.833446 23.678582 7.111796 84.926358-33.08424 111.001574z" fill="#D59758" opacity=".15" p-id="9788"></path><path d="M306.793847 355.787134c0.004111 0.337091 88.942673-18.137136 111.408549-121.085525-1.467579 0.316537 166.847673 70.431448 322.369913 24.492533 0.073996 0.217876 67.529178-10.31416 75.064393 79.549346 0.23843 0.04933 38.753123-40.960658 12.805344-97.246619-13.146546-27.937438-124.546873-42.021261-231.014163-57.617883-106.734496-14.235925-208.540065-29.980538-208.70861-29.840768 0.974275 0.279539-76.531972 149.553265-81.925426 201.748916z" fill="#623733" opacity=".15" p-id="9789"></path><path d="M285.910653 332.161994c7.539326 0.657738 15.078652 1.290812 22.622089 1.895108 67.77994-18.026143 85.329222-141.150657 85.325112-140.990333 108.831037 62.986672 288.70193 52.717731 355.848797 47.168064 67.54151-4.493175 66.028712 98.323666 65.913608 98.500434 76.314096-41.622507 21.175065-254.187109-176.179337-279.300382-197.654495-29.865433-243.59341 56.331182-244.460802 57.835758-71.405723-39.998715-99.347272 36.623695-99.717249 36.796351 0.579632 0.04933-42.674888 74.579311-9.352218 178.095z" fill="#E39715" p-id="9790"></path><path d="M264.464271 400.727109c-0.020554-0.032887 4.406847 36.903234 35.558981 39.44786l-2.384302 29.750329c-0.032887 0.065774-38.4037-14.075601-33.174679-69.198189zM859.692841 400.620227c0.020554-0.032887-4.394515 36.903234-35.550759 39.460192l2.396634 29.750329c0.036998 0.065774 38.407811-14.087934 33.154125-69.210521z" fill="#D59758" opacity=".15" p-id="9791"></path><path d="M684.976973 212.0343c-146.06314 34.810804-296.615345-40.796223-295.283425-40.981212-7.021357 98.105791-113.089893 122.544882-113.324212 122.014581a251.831583 251.831583 0 0 0 9.541317 39.094325c7.539326 0.657738 15.078652 1.290812 22.622089 1.895108 67.77994-18.026143 85.329222-141.150657 85.325112-140.990333 108.831037 62.986672 288.70193 52.717731 355.848797 47.168064 67.54151-4.493175 66.028712 98.327777 65.913608 98.504545 37.984392-59.023798 11.678967-161.848861-130.643286-126.705078z" fill="#8A3B0D" opacity=".2" p-id="9792"></path></svg>