<?xml version="1.0" standalone="no"?><!DOCTYPE svg PUBLIC "-//W3C//DTD SVG 1.1//EN" "http://www.w3.org/Graphics/SVG/1.1/DTD/svg11.dtd"><svg t="1741772777558" class="icon" viewBox="0 0 1032 1024" version="1.1" xmlns="http://www.w3.org/2000/svg" p-id="3923" xmlns:xlink="http://www.w3.org/1999/xlink" width="201.5625" height="200"><path d="M989.822592 1006.079754c-2.127105-16.836162-4.254211-62.412884-6.381316-79.249046-2.681467-20.675628-32.625196-98.179462-91.45321-109.352924-88.361105-24.703988-192.43733-17.821693-254.316384-78.296365-24.408328-5.904976-24.170158 9.333804-49.839145 9.900484-46.56636 0.928042-93.149145 0.928042-139.711399 0-25.660774-0.570787-21.390138-17.57531-45.773828-11.633377-80.345449 77.302621-158.144942 50.939655-247.766706 77.286195-81.618427 24.075711-99.563312 120.041834-102.064098 140.848866l-6.37721 50.496167" fill="#FFFFFF" p-id="3924"></path><path d="M256.829489 498.617305s-7.292933-4.41436-16.142183-9.851208c-8.865676-5.440955-16.322864-26.937859-16.561035-47.707934-0.197106-15.912226-0.373681-31.824452-0.52151-47.736678-0.168362-20.778288 9.559655-34.694812 21.615989-31.036027 12.089185 3.662892 22.014308 6.574316 22.014308 6.574316" fill="#FFEAD6" p-id="3925"></path><path d="M256.829489 498.617305s-7.292933-4.41436-16.142183-9.851208c-8.865676-5.440955-16.322864-26.937859-16.561035-47.707934-0.197106-15.912226-0.373681-31.824452-0.52151-47.736678-0.168362-20.778288 9.559655-34.694812 21.615989-31.036027 12.089185 3.662892 22.014308 6.574316 22.014308 6.574316" fill="#FFEAD6" p-id="3926"></path><path d="M634.20179 740.840397c1.589169 41.466235-40.049533 77.002855-92.55372 77.331365-15.784928 0.10266-31.573963 0.10266-47.358891 0-52.495974-0.32851-94.134676-35.865131-92.549613-77.331365l4.574508-137.649996c1.585063-41.490873 42.024702-73.976452 89.888679-73.680793 14.51195 0.094447 29.0239 0.094447 43.53585 0 47.85987-0.291553 88.303616 32.181707 89.892785 73.680793l4.570402 137.649996z" fill="#FFEAD6" p-id="3927"></path><path d="M634.776683 758.115941c1.57685 41.453915-40.361618 73.274261-93.038272 73.602772-15.846524 0.10266-31.693048 0.10266-47.539572 0-52.672548-0.32851-94.611017-32.140644-93.034167-73.602772l5.145296-154.92554c1.585063-41.490873 42.024702-73.976452 89.888678-73.680793 14.51195 0.094447 29.0239 0.094447 43.535851 0 47.85987-0.291553 88.303616 32.181707 89.892785 73.680793l5.149401 154.92554z" fill="#FFEAD6" p-id="3928"></path><path d="M629.631388 603.190401c-0.024638-0.730936-0.14783-1.433127-0.193-2.147637-52.972314 1.757531-105.981585 2.262616-158.974431 1.511148a3137.008117 3137.008117 0 0 1-65.168265 31.290623l-3.556126 106.995862c-0.513298 15.296269 4.746976 29.734304 14.265567 41.934362 13.731738-11.707292 44.50085-26.387604 112.453242-26.453306 54.265824-0.246383 80.24279 13.505887 92.524975 25.00786 8.824613-11.892079 13.719419-25.792179 13.226653-40.48481l-4.578615-137.654102z" fill="#D59758" opacity=".15" p-id="3929"></path><path d="M779.933143 498.555709s7.28472-4.41436 16.142183-9.855314c8.869783-5.440955 16.314651-26.941965 16.548716-47.71204 0.197106-15.912226 0.369574-31.824452 0.517404-47.736679 0.164255-20.778288-9.563761-34.690706-21.636522-31.027814-12.080973 3.666998-22.001989 6.578422-22.001989 6.578422" fill="#FFEAD6" p-id="3930"></path><path d="M779.933143 498.555709s7.28472-4.41436 16.142183-9.855314c8.869783-5.440955 16.314651-26.941965 16.548716-47.71204 0.197106-15.912226 0.369574-31.824452 0.517404-47.736679 0.164255-20.778288-9.563761-34.690706-21.636522-31.027814-12.080973 3.666998-22.001989 6.578422-22.001989 6.578422" fill="#FFEAD6" p-id="3931"></path><path d="M784.832055 569.813737c1.934105 23.480286-14.298418 55.345802-36.464662 70.506561A3198.591511 3198.591511 0 0 1 604.886337 733.153251c-23.299605 14.277886-62.646947 18.384267-86.915659 18.326779-24.264605 0.057489-63.616053-4.048892-86.915659-18.326779a3196.390491 3196.390491 0 0 1-143.485162-92.832953c-22.170351-15.164865-38.382343-47.026274-36.448238-70.510667l27.516859-343.112765c1.950531-23.488499 23.484393-41.059703 47.884508-39.478747a2950.463444 2950.463444 0 0 0 382.903596 0c24.38369-1.57685 45.929871 15.990247 47.880402 39.482853l27.525071 343.112765z" fill="#FFEAD6" p-id="3932"></path><path d="M745.332777 595.745533a3152.28796 3152.28796 0 0 1-141.567482 92.742613c-22.995733 14.269674-61.833884 18.371948-85.80283 18.314459-23.948414 0.057489-62.80299-4.044785-85.802829-18.314459a3154.977639 3154.977639 0 0 1-141.575696-92.74672c-39.81547-25.804498-33.212409-103.123544-31.401495-126.55866l-8.069038 100.626865c-1.934105 23.480286 14.277886 55.345802 36.452343 70.510667a3199.724872 3199.724872 0 0 0 143.47695 92.832953c23.299605 14.277886 62.646947 18.384267 86.915659 18.326779 24.272818 0.057489 63.624266-4.048892 86.919765-18.326779a3196.246768 3196.246768 0 0 0 143.481056-92.832953c22.174457-15.160758 38.390555-47.026274 36.45645-70.506561l-6.730358-83.926213c1.819127 23.426903 7.042443 84.049405-32.752495 109.858009zM265.888165 385.663084c0 0.332617 88.032594-17.957204 110.260435-119.840621-1.453659 0.312085 165.129896 69.709923 319.061692 24.244073 0.069808 0.217638 66.823137-10.212569 74.284431 78.723429 0.234064 0.049277 38.365917-40.542299 12.676398-96.24125-13.017228-27.652369-123.269449-41.593532-228.639184-57.033525-105.640756-14.088993-206.394918-29.676815-206.56328-29.537198 0.969106 0.279234-75.742196 148.018607-81.080492 199.685092z" fill="#D59758" opacity=".15" p-id="3933"></path><path d="M245.224856 362.281351c7.461294 0.652915 14.926695 1.277084 22.392096 1.876616 67.085945-17.846332 84.447724-139.703186 84.443617-139.543036 107.714478 62.343075 285.738411 52.175676 352.191973 46.681338 66.847775-4.447211 65.348946 97.321228 65.238074 97.497802 75.536877-41.19932 20.958968-251.573321-174.365147-276.429245-195.632094-29.565943-241.097944 55.744121-241.960283 57.234738-70.670816-39.585512-98.319079 36.242918-98.688653 36.415386 0.574893 0.049277-42.234128 73.812197-9.251677 176.266401z" fill="#666869" p-id="3934"></path><path d="M223.994867 430.139296c-0.020532-0.032851 4.365083 36.518046 35.195791 39.039364l-2.361169 29.438645c-0.032851 0.065702-38.012768-13.920631-32.834622-68.478009zM813.104488 430.03253c0.020532-0.032851-4.35687 36.522152-35.183472 39.051683l2.369382 29.438645c0.036957 0.065702 38.012768-13.93295 32.81409-68.490328z" fill="#D59758" opacity=".15" p-id="3935"></path><path d="M640.184787 243.385198c-74.140708 5.576465-153.241924-9.038144-176.42655-54.664143 0.164255-0.123191-8.701421 30.908729 49.432613 61.12348-94.118251-9.970293-165.405024-47.13304-165.248981-47.022168C340.989766 299.92185 236.014244 324.108434 235.78018 323.582817a249.351769 249.351769 0 0 0 9.44057 38.690321c7.461294 0.652915 14.926695 1.281191 22.392095 1.876617 67.085945-17.842225 84.447724-139.699079 84.443618-139.543037 107.714478 62.338969 285.738411 52.175676 352.191973 46.681338 66.847775-4.447211 65.348946 97.321228 65.238074 97.497803 37.585705-58.413269 11.555356-160.185814-129.301723-125.400661z" fill="#666666" opacity=".2" p-id="3936"></path><path d="M287.56575 640.320298a3202.217446 3202.217446 0 0 0 143.481056 92.832953c23.295499 14.277886 62.642841 18.384267 86.911553 18.326779 24.28103 0.057489 63.624266-4.048892 86.919765-18.326779a3196.246768 3196.246768 0 0 0 143.481056-92.832953c22.174457-15.160758 38.398768-47.026274 36.464663-70.506561h-0.008213l-10.783356-134.483975c15.825992 188.027076-109.036733 160.354175-108.60967 159.680729-0.209425 0.04517-75.8736-30.029964-149.628308-30.272241-73.828623-0.648808-77.388855 46.246062-171.654936 29.003369-94.372847-18.511565-82.098874-158.719836-82.242597-158.415964l-10.787463 134.479869c-1.929999 23.484393 14.281993 55.349909 36.45645 70.514774z" fill="#666869" p-id="3937"></path><path d="M781.854929 532.782394c1.884829 23.467967-14.117738 55.259568-36.008854 70.387475a3157.782298 3157.782298 0 0 1-141.88778 92.763146c65.67335-81.807321-61.086523 19.012544-85.987617 18.322671-24.005903 0.057489-62.938501-4.044785-85.987617-18.322671a3160.266658 3160.266658 0 0 1-141.891887-92.763146c-21.919861-15.140226-37.926534-46.985211-35.992428-70.473709l-2.977127 37.117577c-1.934105 23.480286 14.277886 55.345802 36.448238 70.510667a3196.390491 3196.390491 0 0 0 143.485162 92.832954c23.299605 14.277886 62.642841 18.384267 86.915659 18.326778 24.268711 0.057489 63.616053-4.048892 86.915659-18.326778a3196.246768 3196.246768 0 0 0 143.481056-92.832954c22.170351-15.164865 38.398768-47.026274 36.464662-70.50656h-0.012319l-2.964807-37.03545z" fill="#3F3F3F" opacity=".1" p-id="3938"></path><path d="M989.822592 1006.079754c-2.127105-16.836162-4.254211-62.412884-6.381316-79.249046-2.681467-20.675628-32.625196-98.179462-91.45321-109.352924-88.295403-24.929839-178.549549-18.486927-254.316384-78.296365a4908.188765 4908.188765 0 0 1-112.288987 267.826377m0 0.008212a4662.196016 4662.196016 0 0 1-123.035385-269.559269c-94.266081 76.616855-158.198325 50.717911-247.766706 77.277982-81.610215 24.079818-99.563312 120.041834-102.064098 140.848866l-6.37721 50.496167" fill="#DBDCCE" p-id="3939"></path><path d="M767.560617 830.667479c105.135671 29.824645 125.564916 138.122229 129.207276 175.913253 30.970325-3.133169 61.916012 1.560425 92.820635-2.340637-2.131212-16.836162-4.254211-62.412884-6.381316-79.249046-2.681467-20.679734-32.625196-98.179462-91.428572-109.35703-88.24202-24.938051-178.44689-18.499246-254.176766-78.308685 0.246383-0.422957 14.573546 59.35363 129.958743 93.342145z" fill="#3F3F3F" opacity=".1" p-id="3940"></path></svg>