<svg xmlns="http://www.w3.org/2000/svg" viewBox="0 0 500 500">
  <style>
    .st0{fill:#F8F9FA;} .st1{fill:#4361EE;} .st2{fill:#3F37C9;} .st3{fill:#FFFFFF;} .st4{fill:#E6E6E6;}
  </style>
  <rect class="st0" width="500" height="500"/>
  <g>
    <path class="st1" d="M389.5,290.2c0,44.3-35.9,80.2-80.2,80.2H190.7c-44.3,0-80.2-35.9-80.2-80.2V209.8c0-44.3,35.9-80.2,80.2-80.2h118.6
      c44.3,0,80.2,35.9,80.2,80.2V290.2z"/>
    <path class="st2" d="M389.5,290.2c0,44.3-35.9,80.2-80.2,80.2H190.7c-44.3,0-80.2-35.9-80.2-80.2V209.8c0-44.3,35.9-80.2,80.2-80.2h118.6
      c44.3,0,80.2,35.9,80.2,80.2V290.2z"/>
    <path class="st3" d="M329.5,250c0,44.3-35.9,80.2-80.2,80.2H130.7c-44.3,0-80.2-35.9-80.2-80.2v-80.4c0-44.3,35.9-80.2,80.2-80.2h118.6
      c44.3,0,80.2,35.9,80.2,80.2V250z"/>
    <rect x="120" y="140" class="st4" width="220" height="20"/>
    <rect x="120" y="180" class="st4" width="220" height="20"/>
    <rect x="120" y="220" class="st4" width="120" height="20"/>
    <rect x="120" y="260" class="st4" width="80" height="20"/>
    <circle class="st1" cx="350" cy="150" r="30"/>
    <circle class="st2" cx="350" cy="230" r="30"/>
  </g>
</svg>

